<svg xmlns="http://www.w3.org/2000/svg" id="Layer_1" viewBox="0 0 360 432"><defs><style>.cls-1{fill:#f99f1e;stroke-width:0px;}</style></defs><g id="X9H2ji"><path class="cls-1" d="M278.91,354.71H25.68V101.45h222.83c-.68.75-1.5,1.64-2.31,2.54-1.99,2.21-3.88,4.51-5.97,6.61-8.31,8.36-16.66,16.68-25.06,24.94-.71.7-1.95,1.2-2.95,1.2-49.3.05-98.61.04-147.91.04-.99,0-1.98,0-3.14,0v182.41h182.39c0-.94,0-1.77,0-2.61,0-28.15.01-56.31-.03-84.46,0-1.63.47-2.77,1.63-3.91,10.91-10.81,21.76-21.68,32.63-32.54.29-.29.6-.55,1.14-1.03v160.09Z"></path><path class="cls-1" d="M144.49,290.12c-20.6-20.59-41.34-41.32-62.05-62.03,7.55-7.49,15.15-15.02,22.88-22.69,12.83,12.9,25.84,25.99,39.02,39.24,55.98-55.95,111.69-111.62,167.47-167.37,7.49,7.66,15.09,15.43,22.52,23.03-63.04,63.03-126.44,126.43-189.83,189.81Z"></path></g></svg>